<svg width="60" height="66" viewBox="0 0 60 66" fill="none" xmlns="http://www.w3.org/2000/svg">
<path d="M52.9736 48.6699V56.7733C52.9736 56.7733 56.9418 56.0383 59.7405 53.8243V45.7209C56.9418 47.9349 52.9736 48.6699 52.9736 48.6699Z" fill="#CE2618"/>
<path d="M52.9737 57.0329C52.9136 57.0329 52.8546 57.0119 52.8076 56.9728C52.7484 56.9236 52.7139 56.8504 52.7139 56.7733V48.6699C52.7139 48.5447 52.8032 48.4373 52.9261 48.4146C52.9652 48.4073 56.8656 47.6638 59.5792 45.5172C59.6574 45.4554 59.7638 45.4438 59.8534 45.487C59.943 45.5305 60 45.6213 60 45.7209V53.8243C60 53.9037 59.9636 53.9788 59.9014 54.028C57.0847 56.2561 53.1855 56.9982 53.0209 57.0286C53.0053 57.0317 52.9895 57.0329 52.9737 57.0329ZM53.2333 48.8821V56.4524C54.1955 56.2331 57.2206 55.4396 59.4807 53.6975V46.241C57.0616 47.9733 54.0577 48.7056 53.2333 48.8821Z" fill="#363636"/>
<path d="M55.8977 52.3206L52.9736 56.7733V52.822L55.8977 52.3206Z" fill="#CE2618"/>
<path d="M52.9737 57.0331C52.949 57.0331 52.924 57.0296 52.8993 57.0223C52.7893 56.9894 52.7139 56.8882 52.7139 56.7735V52.8219C52.7139 52.6956 52.8051 52.5875 52.9296 52.566L55.8535 52.0649C55.9553 52.0474 56.058 52.0921 56.1145 52.1786C56.1711 52.2651 56.1711 52.3769 56.1143 52.4634L53.1905 56.9161C53.1419 56.9903 53.0595 57.0331 52.9737 57.0331ZM53.2333 53.0408V55.9048L55.3525 52.6775L53.2333 53.0408Z" fill="#363636"/>
<path d="M51.0734 9.61627C36.021 12.1225 30 0.259827 30 0.259827C30 0.259827 23.979 12.1225 8.92659 9.61627C3.33563 33.6759 1.47212 56.3989 30 64.92C58.5279 56.3989 56.6644 33.6759 51.0734 9.61627Z" fill="#FF9800"/>
<path d="M30.0001 64.9199C58.528 56.3989 56.6645 33.6758 51.0735 9.61621C48.997 9.96189 47.0925 10.0338 45.3518 9.9014C47.9518 26.3261 46.6668 41.9657 33.9575 47.4126C25.6516 50.9723 14.3657 47.3488 6.91602 44.0369C9.51018 53.3507 16.1983 60.7973 30.0001 64.9199Z" fill="#F07D00"/>
<path d="M30.0006 65.1796C29.9757 65.1796 29.9505 65.1761 29.9262 65.1688C16.7874 61.2443 9.09742 54.0442 6.41699 43.1571C5.29597 38.6036 5.02575 33.3793 5.59072 27.1857C6.03743 22.2888 7.01731 16.6875 8.674 9.55745C8.70497 9.424 8.83468 9.33732 8.96958 9.36019C16.6409 10.6373 21.8832 8.06789 24.9303 5.68741C28.2402 3.10156 29.7541 0.171284 29.7688 0.141975C29.8131 0.0548794 29.9025 0 30.0002 0H30.0004C30.0981 0 30.1877 0.0548746 30.2317 0.142178C30.2467 0.171279 31.7606 3.10156 35.0702 5.68741C37.5571 7.63033 41.5078 9.69922 47.047 9.69963C48.2942 9.69963 49.621 9.59487 51.0308 9.36019C51.1659 9.33712 51.2954 9.424 51.3264 9.55745C52.9833 16.6875 53.9629 22.2888 54.4096 27.1857C54.9746 33.3793 54.7044 38.6036 53.5834 43.1571C50.9029 54.0442 43.2132 61.2443 30.0742 65.1688C30.0507 65.1761 30.0255 65.1796 30.0006 65.1796ZM9.12527 9.91124C6.63359 20.6751 4.44934 32.9922 6.92148 43.0328C9.54911 53.7056 17.0982 60.7766 30.0006 64.6487C42.9032 60.7766 50.4521 53.7056 53.0797 43.0328C55.5516 32.992 53.3676 20.6751 50.8759 9.91124C47.4933 10.4436 44.2932 10.2923 41.3602 9.46142C38.9554 8.78004 36.7257 7.64301 34.7324 6.08215C32.0468 3.97876 30.5421 1.70803 30.0006 0.791555C29.4589 1.70803 27.9544 3.97876 25.2687 6.08215C23.2757 7.64301 21.0457 8.77983 18.6409 9.46142C15.708 10.2925 12.5079 10.4436 9.12527 9.91124Z" fill="#363636"/>
<path d="M11.6932 13.4724C6.30739 38.3003 8.01106 54.1887 30.0003 61.2096C51.9894 54.1887 53.6931 38.3003 48.3073 13.472C39.7721 13.8692 33.6407 10.0669 30.0001 6.22412C26.36 10.0665 20.2267 13.864 11.6932 13.4724Z" fill="#EACE8E"/>
<path d="M30.0002 61.2096C51.9893 54.1887 53.6929 38.3003 48.3071 13.472C47.4661 13.5111 46.649 13.509 45.8547 13.4705C47.7043 28.5481 45.7421 42.362 33.9575 47.4125C27.1266 50.3401 18.2805 48.409 11.21 45.7888C14.0099 52.8272 19.8391 57.9652 30.0002 61.2096Z" fill="#D2B674"/>
<path d="M30.0004 61.4692C29.9738 61.4692 29.9469 61.4651 29.9214 61.457C24.4433 59.708 20.1943 57.4233 16.9316 54.4727C13.7958 51.6368 11.6375 48.2427 10.3336 44.0965C9.12172 40.2432 8.66276 35.7648 8.93007 30.4054C9.16641 25.6685 9.98728 20.1119 11.4396 13.4174C11.4664 13.2935 11.5797 13.2078 11.7053 13.213C21.1411 13.6464 27.0998 8.90833 29.8118 6.0456C29.8609 5.99384 29.9291 5.96454 30.0004 5.96454C30.0717 5.96454 30.1398 5.99384 30.1889 6.0456C32.9032 8.91082 38.865 13.6516 48.2954 13.2128C48.4225 13.2064 48.5345 13.2933 48.5613 13.4171C50.0135 20.1117 50.8343 25.6685 51.0709 30.4054C51.3384 35.765 50.8792 40.2435 49.6674 44.0967C48.3634 48.243 46.2052 51.637 43.0693 54.4729C39.8066 57.4235 35.5577 59.708 30.0796 61.4572C30.0536 61.4651 30.027 61.4692 30.0004 61.4692ZM11.9009 13.741C8.92778 27.5267 8.5979 36.8467 10.8289 43.9408C13.4164 52.1677 19.5094 57.5701 30.0004 60.9369C40.4913 57.5699 46.5843 52.1677 49.1718 43.9406C51.403 36.8465 51.0732 27.5264 48.0999 13.7406C47.7548 13.7539 47.4137 13.7603 47.0776 13.7603C38.3616 13.7603 32.7301 9.41199 30.0002 6.59915C27.2709 9.41116 21.6363 13.7597 12.909 13.7599C12.5773 13.7601 12.2414 13.7539 11.9009 13.741Z" fill="#363636"/>
<path d="M7.02662 48.6699V56.7733C7.02662 56.7733 3.05847 56.0383 0.259766 53.8243V45.7209C3.05847 47.9349 7.02662 48.6699 7.02662 48.6699Z" fill="#E43C2F"/>
<path d="M3.14078 47.4177C2.91629 49.6111 1.97902 51.7086 0.259766 52.2083V53.8243C3.05847 56.0381 7.02662 56.7733 7.02662 56.7733V48.6699C7.02662 48.6699 5.19366 48.3302 3.14078 47.4177Z" fill="#CE2618"/>
<path d="M7.02648 57.0329C7.01068 57.0329 6.99489 57.0315 6.97909 57.0286C6.81446 56.998 2.91532 56.2562 0.0985281 54.028C0.0361684 53.9788 0 53.9037 0 53.8243V45.7209C0 45.6213 0.0569556 45.5305 0.146546 45.4871C0.236136 45.4436 0.342771 45.4555 0.42072 45.5172C3.13441 47.6638 7.03459 48.4074 7.07367 48.4146C7.19672 48.4375 7.2859 48.5448 7.2859 48.6699V56.7733C7.2859 56.8504 7.2516 56.9236 7.19236 56.9729C7.14559 57.0122 7.08676 57.0329 7.02648 57.0329ZM0.519455 53.6977C2.77958 55.4397 5.80465 56.2333 6.76686 56.4526V48.8823C5.94267 48.7056 2.93859 47.9735 0.519455 46.2414V53.6977Z" fill="#363636"/>
<path d="M4.10254 52.3206L7.02638 56.7733V52.822L4.10254 52.3206Z" fill="#CE2618"/>
<path d="M7.02621 57.0332C6.94036 57.0332 6.85805 56.9906 6.8092 56.9159L3.88536 52.4632C3.82861 52.3768 3.82861 52.2649 3.88515 52.1785C3.9419 52.092 4.04438 52.0473 4.14623 52.0648L7.07007 52.5659C7.19479 52.5873 7.28583 52.6954 7.28583 52.8218V56.7733C7.28583 56.8881 7.21059 56.9893 7.10063 57.0222C7.0761 57.0296 7.05094 57.0332 7.02621 57.0332ZM4.64739 52.6776L6.76659 55.9049V53.0409L4.64739 52.6776Z" fill="#363636"/>
<path d="M30.0001 51.3182C21.3119 51.3182 11.3706 50.1486 4.10254 44.2173V52.3208C11.3706 58.2522 21.3119 59.4217 30.0001 59.4217C38.6883 59.4217 48.6296 58.252 55.8977 52.3208V44.2173C48.6296 50.1486 38.6883 51.3182 30.0001 51.3182Z" fill="#E43C2F"/>
<path d="M30.0001 59.4217C38.6883 59.4217 48.6296 58.2522 55.8977 52.3208V44.2173C55.1733 44.8085 54.4218 45.3517 53.6481 45.8518L53.6477 45.853C53.6477 51.5375 27.3053 64.0413 4.10254 50.6123V52.3206C11.3706 58.252 21.3117 59.4217 30.0001 59.4217Z" fill="#CE2618"/>
<path d="M30 59.6814C24.7755 59.6814 20.3467 59.2455 16.4602 58.3485C11.4806 57.1994 7.26757 55.2391 3.93818 52.5219C3.87769 52.4726 3.84277 52.3986 3.84277 52.3206V44.2172C3.84277 44.117 3.90056 44.0256 3.99119 43.9827C4.08182 43.9397 4.18908 43.9526 4.26682 44.016C12.0017 50.3284 22.6577 51.0585 30.0002 51.0585C37.3426 51.0585 47.9986 50.3284 55.7335 44.016C55.8113 43.9526 55.9185 43.9397 56.0091 43.9827C56.0998 44.0258 56.1576 44.117 56.1576 44.2172V52.3206C56.1576 52.3986 56.1224 52.4724 56.0621 52.5219C52.7328 55.2389 48.5197 57.1992 43.5401 58.3485C39.6532 59.2453 35.2242 59.6814 30 59.6814ZM4.36202 52.197C12.089 58.4381 22.6875 59.1619 30 59.1619C37.3125 59.1619 47.9109 58.4381 55.6379 52.197V44.7564C52.3775 47.2984 48.3102 49.144 43.5397 50.2449C39.6532 51.1418 35.2245 51.5777 30 51.5777C24.7755 51.5777 20.3467 51.1418 16.4602 50.2449C11.6897 49.144 7.6226 47.2984 4.36202 44.7564V52.197Z" fill="#363636"/>
</svg>
