<svg width="63" height="65" viewBox="0 0 63 65" fill="none" xmlns="http://www.w3.org/2000/svg">
<path opacity="0.4" d="M55.1627 40.1717C58.3077 26.9972 50.1772 13.7677 37.0027 10.6227C23.8283 7.47775 10.5987 15.6083 7.45375 28.7827C4.30878 41.9572 12.4393 55.1867 25.6138 58.3317C38.7883 61.4767 52.0178 53.3461 55.1627 40.1717Z" fill="#202628"/>
<path d="M31.295 55.8153C44.8392 55.8153 55.819 44.8356 55.819 31.2914C55.819 17.7471 44.8392 6.76733 31.295 6.76733C17.7508 6.76733 6.771 17.7471 6.771 31.2914C6.771 44.8356 17.7508 55.8153 31.295 55.8153Z" fill="#860648"/>
<path d="M46.9359 46.9359C55.5766 38.2952 55.5765 24.286 46.9359 15.6453C38.2952 7.00465 24.286 7.00463 15.6453 15.6453C7.00464 24.2859 7.00464 38.2952 15.6453 46.9359C24.286 55.5765 38.2952 55.5765 46.9359 46.9359Z" fill="#603325"/>
<g filter="url(#filter0_d_5_1704)">
<path d="M31.2951 52.0263C42.7467 52.0263 52.0301 42.743 52.0301 31.2914C52.0301 19.8397 42.7467 10.5563 31.2951 10.5563C19.8435 10.5563 10.5601 19.8397 10.5601 31.2914C10.5601 42.743 19.8435 52.0263 31.2951 52.0263Z" fill="url(#paint0_linear_5_1704)"/>
</g>
<path opacity="0.1" fill-rule="evenodd" clip-rule="evenodd" d="M13.721 32.0143C19.062 33.8673 24.404 34.5303 29.503 32.0143C34.602 29.4973 41.885 27.8574 46.134 28.4044C47.304 28.5554 48.827 28.8993 50.416 29.3153C49.1 19.9203 41.053 12.6833 31.295 12.6833C20.853 12.6833 12.367 20.9693 11.999 31.3214C12.54 31.5674 13.111 31.8023 13.721 32.0143Z" fill="#EACE8E"/>
<path opacity="0.1" fill-rule="evenodd" clip-rule="evenodd" d="M12.75 36.7803C15.923 44.2943 23.433 50.4573 31.207 50.4573C36.678 50.3933 42.694 47.3813 45.527 43.6183C46.556 39.4173 37.677 44.4683 31.207 44.3873C23.19 44.5493 14.611 33.0573 12.75 36.7803Z" fill="#EACE8E"/>
<path opacity="0.3" fill-rule="evenodd" clip-rule="evenodd" d="M40.714 20.2983C40.668 19.2783 40.09 18.9334 39.181 19.0104L26.157 20.4764C24.934 20.5744 24.206 21.2534 23.993 22.5344L23.599 34.9414C23.032 34.7694 22.815 34.7754 22.173 34.7754C19.316 34.7754 17 36.6464 17 38.9554C17 41.2644 19.316 43.1354 22.173 43.1354C25.03 43.1354 27.346 41.2644 27.346 38.9554C27.346 38.8164 27.337 38.6793 27.32 38.5443L27.337 38.5554L27.72 25.4224C27.784 24.5754 28.127 23.8753 29.462 23.8543L35.872 22.9134C36.638 22.8124 36.879 23.2654 36.917 24.0634L37.092 33.0223C36.454 32.7953 36.388 32.8933 35.646 32.8933C32.789 32.8933 30.473 34.7644 30.473 37.0734C30.473 39.3824 32.789 41.2534 35.646 41.2534C38.503 41.2534 40.819 39.3824 40.819 37.0734C40.819 36.7864 40.714 20.2983 40.714 20.2983Z" fill="black"/>
<path fill-rule="evenodd" clip-rule="evenodd" d="M41.5499 21.1343C41.5029 20.1143 40.9259 19.7694 40.0169 19.8464L26.9929 21.3124C25.7689 21.4104 25.0419 22.0894 24.8289 23.3704L24.4349 35.7774C23.8679 35.6054 23.6509 35.6114 23.0089 35.6114C20.1519 35.6114 17.8359 37.4824 17.8359 39.7914C17.8359 42.1004 20.1519 43.9714 23.0089 43.9714C25.8659 43.9714 28.1819 42.1004 28.1819 39.7914C28.1819 39.6524 28.1729 39.5153 28.1559 39.3803L28.1729 39.3914L28.5559 26.2584C28.6199 25.4114 28.9629 24.7113 30.2979 24.6903L36.7079 23.7503C37.4739 23.6493 37.7149 24.1014 37.7529 24.9004L37.9279 33.8594C37.2899 33.6324 37.2239 33.7304 36.4819 33.7304C33.6249 33.7304 31.3089 35.6013 31.3089 37.9103C31.3089 40.2193 33.6249 42.0904 36.4819 42.0904C39.3389 42.0904 41.6549 40.2193 41.6549 37.9103C41.6549 37.6223 41.5499 21.1343 41.5499 21.1343Z" fill="#EACE8E"/>
<path fill-rule="evenodd" clip-rule="evenodd" d="M48.6998 38.4007L48.1672 39.446C47.6488 40.4635 46.3561 40.8527 45.2941 40.3115L16.799 27.5566C15.737 27.0155 15.2923 25.7404 15.8105 24.7234L16.3431 23.6782C16.8615 22.6606 18.1545 22.2709 19.2166 22.812L47.7116 35.5669C48.7733 36.1086 49.218 37.3838 48.6998 38.4007Z" fill="#763C26"/>
<path fill-rule="evenodd" clip-rule="evenodd" d="M49.443 37.1375L48.9107 38.1822C48.3923 39.1997 47.0993 39.5895 46.0372 39.0483L17.5422 26.2935C16.4802 25.7523 16.0355 24.4772 16.5539 23.4596L17.0862 22.415C17.6047 21.3974 18.8977 21.0077 19.9597 21.5488L48.4547 34.3037C49.5168 34.8448 49.9615 36.12 49.443 37.1375Z" fill="#EACE8E"/>
<defs>
<filter id="filter0_d_5_1704" x="6.56006" y="10.5563" width="49.4702" height="49.47" filterUnits="userSpaceOnUse" color-interpolation-filters="sRGB">
<feFlood flood-opacity="0" result="BackgroundImageFix"/>
<feColorMatrix in="SourceAlpha" type="matrix" values="0 0 0 0 0 0 0 0 0 0 0 0 0 0 0 0 0 0 127 0" result="hardAlpha"/>
<feOffset dy="4"/>
<feGaussianBlur stdDeviation="2"/>
<feComposite in2="hardAlpha" operator="out"/>
<feColorMatrix type="matrix" values="0 0 0 0 0 0 0 0 0 0 0 0 0 0 0 0 0 0 0.25 0"/>
<feBlend mode="normal" in2="BackgroundImageFix" result="effect1_dropShadow_5_1704"/>
<feBlend mode="normal" in="SourceGraphic" in2="effect1_dropShadow_5_1704" result="shape"/>
</filter>
<linearGradient id="paint0_linear_5_1704" x1="31.2951" y1="10.5563" x2="31.2951" y2="52.0263" gradientUnits="userSpaceOnUse">
<stop stop-color="#F07D00"/>
<stop offset="1" stop-color="#8A4800"/>
</linearGradient>
</defs>
</svg>
