<svg width="63" height="65" viewBox="0 0 63 65" fill="none" xmlns="http://www.w3.org/2000/svg">
<path opacity="0.4" d="M55.1623 40.1717C58.3072 26.9972 50.1767 13.7677 37.0022 10.6227C23.8278 7.47775 10.5982 15.6083 7.45327 28.7827C4.3083 41.9572 12.4388 55.1867 25.6133 58.3317C38.7878 61.4767 52.0173 53.3461 55.1623 40.1717Z" fill="#202628"/>
<path d="M31.2945 55.8153C44.8388 55.8153 55.8185 44.8356 55.8185 31.2914C55.8185 17.7471 44.8388 6.76733 31.2945 6.76733C17.7503 6.76733 6.77051 17.7471 6.77051 31.2914C6.77051 44.8356 17.7503 55.8153 31.2945 55.8153Z" fill="#860648"/>
<path d="M46.9359 46.9359C55.5766 38.2952 55.5765 24.286 46.9359 15.6453C38.2952 7.00465 24.286 7.00463 15.6453 15.6453C7.00464 24.2859 7.00464 38.2952 15.6453 46.9359C24.286 55.5765 38.2952 55.5765 46.9359 46.9359Z" fill="#603325"/>
<g filter="url(#filter0_d_2_9797)">
<path d="M31.2946 52.0263C42.7462 52.0263 52.0296 42.743 52.0296 31.2914C52.0296 19.8397 42.7462 10.5563 31.2946 10.5563C19.843 10.5563 10.5596 19.8397 10.5596 31.2914C10.5596 42.743 19.843 52.0263 31.2946 52.0263Z" fill="url(#paint0_linear_2_9797)"/>
</g>
<path opacity="0.1" fill-rule="evenodd" clip-rule="evenodd" d="M13.721 32.0143C19.062 33.8673 24.404 34.5303 29.503 32.0143C34.602 29.4973 41.885 27.8574 46.134 28.4044C47.304 28.5554 48.827 28.8993 50.416 29.3153C49.1 19.9203 41.053 12.6833 31.295 12.6833C20.853 12.6833 12.367 20.9693 11.999 31.3214C12.54 31.5674 13.111 31.8023 13.721 32.0143Z" fill="#EACE8E"/>
<path opacity="0.1" fill-rule="evenodd" clip-rule="evenodd" d="M12.75 36.7803C15.923 44.2943 23.433 50.4573 31.207 50.4573C36.678 50.3933 42.694 47.3813 45.527 43.6183C46.556 39.4173 37.677 44.4683 31.207 44.3873C23.19 44.5493 14.611 33.0573 12.75 36.7803Z" fill="#EACE8E"/>
<path opacity="0.3" fill-rule="evenodd" clip-rule="evenodd" d="M41.714 20.2983C41.668 19.2783 41.09 18.9334 40.181 19.0104L27.157 20.4764C25.934 20.5744 25.206 21.2534 24.993 22.5344L24.599 34.9414C24.032 34.7694 23.815 34.7754 23.173 34.7754C20.316 34.7754 18 36.6464 18 38.9554C18 41.2644 20.316 43.1354 23.173 43.1354C26.03 43.1354 28.346 41.2644 28.346 38.9554C28.346 38.8164 28.337 38.6793 28.32 38.5443L28.337 38.5554L28.72 25.4224C28.784 24.5754 29.127 23.8753 30.462 23.8543L36.872 22.9134C37.638 22.8124 37.879 23.2654 37.917 24.0634L38.092 33.0223C37.454 32.7953 37.388 32.8933 36.646 32.8933C33.789 32.8933 31.473 34.7644 31.473 37.0734C31.473 39.3824 33.789 41.2534 36.646 41.2534C39.503 41.2534 41.819 39.3824 41.819 37.0734C41.819 36.7864 41.714 20.2983 41.714 20.2983Z" fill="black"/>
<path fill-rule="evenodd" clip-rule="evenodd" d="M42.5499 21.1343C42.5029 20.1143 41.9259 19.7694 41.0169 19.8464L27.9929 21.3124C26.7689 21.4104 26.0419 22.0894 25.8289 23.3704L25.4349 35.7774C24.8679 35.6054 24.6509 35.6114 24.0089 35.6114C21.1519 35.6114 18.8359 37.4824 18.8359 39.7914C18.8359 42.1004 21.1519 43.9714 24.0089 43.9714C26.8659 43.9714 29.1819 42.1004 29.1819 39.7914C29.1819 39.6524 29.1729 39.5153 29.1559 39.3803L29.1729 39.3914L29.5559 26.2584C29.6199 25.4114 29.9629 24.7113 31.2979 24.6903L37.7079 23.7503C38.4739 23.6493 38.7149 24.1014 38.7529 24.9004L38.9279 33.8594C38.2899 33.6324 38.2239 33.7304 37.4819 33.7304C34.6249 33.7304 32.3089 35.6013 32.3089 37.9103C32.3089 40.2193 34.6249 42.0904 37.4819 42.0904C40.3389 42.0904 42.6549 40.2193 42.6549 37.9103C42.6549 37.6223 42.5499 21.1343 42.5499 21.1343Z" fill="#EDE5D3"/>
<defs>
<filter id="filter0_d_2_9797" x="6.55957" y="10.5563" width="49.4697" height="49.47" filterUnits="userSpaceOnUse" color-interpolation-filters="sRGB">
<feFlood flood-opacity="0" result="BackgroundImageFix"/>
<feColorMatrix in="SourceAlpha" type="matrix" values="0 0 0 0 0 0 0 0 0 0 0 0 0 0 0 0 0 0 127 0" result="hardAlpha"/>
<feOffset dy="4"/>
<feGaussianBlur stdDeviation="2"/>
<feComposite in2="hardAlpha" operator="out"/>
<feColorMatrix type="matrix" values="0 0 0 0 0 0 0 0 0 0 0 0 0 0 0 0 0 0 0.25 0"/>
<feBlend mode="normal" in2="BackgroundImageFix" result="effect1_dropShadow_2_9797"/>
<feBlend mode="normal" in="SourceGraphic" in2="effect1_dropShadow_2_9797" result="shape"/>
</filter>
<linearGradient id="paint0_linear_2_9797" x1="31.2946" y1="10.5563" x2="31.2946" y2="52.0263" gradientUnits="userSpaceOnUse">
<stop stop-color="#F07D00"/>
<stop offset="1" stop-color="#8A4800"/>
</linearGradient>
</defs>
</svg>
