<svg width="20" height="32" viewBox="0 0 20 32" fill="none" xmlns="http://www.w3.org/2000/svg">
<path d="M0.372348 27.2023C1.02113 30.9266 2.87548 31.8497 5.62416 30.6917C10.0301 28.1048 14.1995 24.6055 18.208 20.4854C20.4557 18.2927 20.7349 14.5831 18.208 11.3557C13.1294 6.50381 8.18477 1.91063 4.83084 0.399555C2.014 -0.683655 0.642535 0.590084 0.371528 3.65987C-0.0752246 11.9461 -0.170489 19.8875 0.372348 27.2023Z" fill="#FF9800"/>
<path d="M2.17891 24.9258C2.71026 27.9775 4.23036 28.7339 6.48302 27.7853C10.0932 25.6657 13.5103 22.798 16.7953 19.421C18.6373 17.6242 18.8656 14.5848 16.7953 11.9388C12.6333 7.96315 8.58128 4.19859 5.83342 2.96016C3.52492 2.0724 2.40065 3.11619 2.17891 5.63246C1.81182 12.4241 1.7338 18.9316 2.17891 24.9258Z" fill="#860648"/>
</svg>
