<svg width="20" height="32" viewBox="0 0 20 32" fill="none" xmlns="http://www.w3.org/2000/svg">
<path d="M19.6277 3.97729C18.9789 0.252977 17.1245 -0.670088 14.3758 0.487856C9.96991 3.07475 5.80049 6.57405 1.79203 10.6942C-0.455695 12.8869 -0.734916 16.5964 1.79203 19.8239C6.87056 24.6758 11.8152 29.2689 15.1692 30.78C17.986 31.8632 19.3575 30.5895 19.6285 27.5197C20.0752 19.2334 20.1705 11.292 19.6277 3.97729Z" fill="#FF9800"/>
<path d="M17.8211 6.25378C17.2897 3.20206 15.7696 2.44571 13.517 3.39424C9.90683 5.51385 6.48966 8.3816 3.20471 11.7585C1.36268 13.5554 1.13438 16.5948 3.20471 19.2408C7.36674 23.2164 11.4187 26.981 14.1666 28.2194C16.4751 29.1072 17.5994 28.0634 17.8211 25.5471C18.1882 18.7555 18.2662 12.248 17.8211 6.25378Z" fill="#860648"/>
</svg>
